<svg width="258" height="64" viewBox="0 0 258 64" fill="none" xmlns="http://www.w3.org/2000/svg">
<circle cx="31.5" cy="31.842" r="31.5" fill="#FF64AE"/>
<rect x="39" y="26.342" width="40" height="11" rx="5.5" fill="white"/>
<circle cx="28" cy="26.342" r="3" fill="white"/>
<circle cx="18.5" cy="17.842" r="6.5" fill="white"/>
<path d="M108.688 31.702C109.664 31.91 110.448 32.398 111.04 33.166C111.632 33.918 111.928 34.782 111.928 35.758C111.928 37.166 111.432 38.286 110.44 39.118C109.464 39.934 108.096 40.342 106.336 40.342H98.488V23.494H106.072C107.784 23.494 109.12 23.886 110.08 24.67C111.056 25.454 111.544 26.518 111.544 27.862C111.544 28.854 111.28 29.678 110.752 30.334C110.24 30.99 109.552 31.446 108.688 31.702ZM102.592 30.31H105.28C105.952 30.31 106.464 30.166 106.816 29.878C107.184 29.574 107.368 29.134 107.368 28.558C107.368 27.982 107.184 27.542 106.816 27.238C106.464 26.934 105.952 26.782 105.28 26.782H102.592V30.31ZM105.616 37.03C106.304 37.03 106.832 36.878 107.2 36.574C107.584 36.254 107.776 35.798 107.776 35.206C107.776 34.614 107.576 34.15 107.176 33.814C106.792 33.478 106.256 33.31 105.568 33.31H102.592V37.03H105.616ZM129.332 33.43C129.332 33.814 129.308 34.214 129.26 34.63H119.972C120.036 35.462 120.3 36.102 120.764 36.55C121.244 36.982 121.828 37.198 122.516 37.198C123.54 37.198 124.252 36.766 124.652 35.902H129.02C128.796 36.782 128.388 37.574 127.796 38.278C127.22 38.982 126.492 39.534 125.612 39.934C124.732 40.334 123.748 40.534 122.66 40.534C121.348 40.534 120.18 40.254 119.156 39.694C118.132 39.134 117.332 38.334 116.756 37.294C116.18 36.254 115.892 35.038 115.892 33.646C115.892 32.254 116.172 31.038 116.732 29.998C117.308 28.958 118.108 28.158 119.132 27.598C120.156 27.038 121.332 26.758 122.66 26.758C123.956 26.758 125.108 27.03 126.116 27.574C127.124 28.118 127.908 28.894 128.468 29.902C129.044 30.91 129.332 32.086 129.332 33.43ZM125.132 32.35C125.132 31.646 124.892 31.086 124.412 30.67C123.932 30.254 123.332 30.046 122.612 30.046C121.924 30.046 121.34 30.246 120.86 30.646C120.396 31.046 120.108 31.614 119.996 32.35H125.132ZM133.081 33.622C133.081 32.246 133.337 31.038 133.849 29.998C134.377 28.958 135.089 28.158 135.985 27.598C136.881 27.038 137.881 26.758 138.985 26.758C139.929 26.758 140.753 26.95 141.457 27.334C142.177 27.718 142.729 28.222 143.113 28.846V26.95H147.217V40.342H143.113V38.446C142.713 39.07 142.153 39.574 141.433 39.958C140.729 40.342 139.905 40.534 138.961 40.534C137.873 40.534 136.881 40.254 135.985 39.694C135.089 39.118 134.377 38.31 133.849 37.27C133.337 36.214 133.081 34.998 133.081 33.622ZM143.113 33.646C143.113 32.622 142.825 31.814 142.249 31.222C141.689 30.63 141.001 30.334 140.185 30.334C139.369 30.334 138.673 30.63 138.097 31.222C137.537 31.798 137.257 32.598 137.257 33.622C137.257 34.646 137.537 35.462 138.097 36.07C138.673 36.662 139.369 36.958 140.185 36.958C141.001 36.958 141.689 36.662 142.249 36.07C142.825 35.478 143.113 34.67 143.113 33.646ZM165.81 26.95V40.342H161.706V38.518C161.29 39.11 160.722 39.59 160.002 39.958C159.298 40.31 158.514 40.486 157.65 40.486C156.626 40.486 155.722 40.262 154.938 39.814C154.154 39.35 153.546 38.686 153.114 37.822C152.682 36.958 152.466 35.942 152.466 34.774V26.95H156.546V34.222C156.546 35.118 156.778 35.814 157.242 36.31C157.706 36.806 158.33 37.054 159.114 37.054C159.914 37.054 160.546 36.806 161.01 36.31C161.474 35.814 161.706 35.118 161.706 34.222V26.95H165.81ZM178.622 36.862V40.342H176.534C175.046 40.342 173.886 39.982 173.054 39.262C172.222 38.526 171.806 37.334 171.806 35.686V30.358H170.174V26.95H171.806V23.686H175.91V26.95H178.598V30.358H175.91V35.734C175.91 36.134 176.006 36.422 176.198 36.598C176.39 36.774 176.71 36.862 177.158 36.862H178.622ZM185.372 25.558C184.652 25.558 184.06 25.35 183.596 24.934C183.148 24.502 182.924 23.974 182.924 23.35C182.924 22.71 183.148 22.182 183.596 21.766C184.06 21.334 184.652 21.118 185.372 21.118C186.076 21.118 186.652 21.334 187.1 21.766C187.564 22.182 187.796 22.71 187.796 23.35C187.796 23.974 187.564 24.502 187.1 24.934C186.652 25.35 186.076 25.558 185.372 25.558ZM187.412 26.95V40.342H183.308V26.95H187.412ZM191.97 33.646C191.97 32.254 192.25 31.038 192.81 29.998C193.386 28.958 194.178 28.158 195.186 27.598C196.21 27.038 197.378 26.758 198.69 26.758C200.37 26.758 201.77 27.198 202.89 28.078C204.026 28.958 204.77 30.198 205.122 31.798H200.754C200.386 30.774 199.674 30.262 198.618 30.262C197.866 30.262 197.266 30.558 196.818 31.15C196.37 31.726 196.146 32.558 196.146 33.646C196.146 34.734 196.37 35.574 196.818 36.166C197.266 36.742 197.866 37.03 198.618 37.03C199.674 37.03 200.386 36.518 200.754 35.494H205.122C204.77 37.062 204.026 38.294 202.89 39.19C201.754 40.086 200.354 40.534 198.69 40.534C197.378 40.534 196.21 40.254 195.186 39.694C194.178 39.134 193.386 38.334 192.81 37.294C192.25 36.254 191.97 35.038 191.97 33.646ZM222.342 33.43C222.342 33.814 222.318 34.214 222.27 34.63H212.982C213.046 35.462 213.31 36.102 213.774 36.55C214.254 36.982 214.838 37.198 215.526 37.198C216.55 37.198 217.262 36.766 217.662 35.902H222.03C221.806 36.782 221.398 37.574 220.806 38.278C220.23 38.982 219.502 39.534 218.622 39.934C217.742 40.334 216.758 40.534 215.67 40.534C214.358 40.534 213.19 40.254 212.166 39.694C211.142 39.134 210.342 38.334 209.766 37.294C209.19 36.254 208.902 35.038 208.902 33.646C208.902 32.254 209.182 31.038 209.742 29.998C210.318 28.958 211.118 28.158 212.142 27.598C213.166 27.038 214.342 26.758 215.67 26.758C216.966 26.758 218.118 27.03 219.126 27.574C220.134 28.118 220.918 28.894 221.478 29.902C222.054 30.91 222.342 32.086 222.342 33.43ZM218.142 32.35C218.142 31.646 217.902 31.086 217.422 30.67C216.942 30.254 216.342 30.046 215.622 30.046C214.934 30.046 214.35 30.246 213.87 30.646C213.406 31.046 213.118 31.614 213.006 32.35H218.142Z" fill="white"/>
</svg>
